<?xml version="1.0" encoding="utf-8" standalone="no"?>
<!DOCTYPE svg PUBLIC "-//W3C//DTD SVG 1.1//EN"
  "http://www.w3.org/Graphics/SVG/1.1/DTD/svg11.dtd">
<svg xmlns:xlink="http://www.w3.org/1999/xlink" width="460.8pt" height="345.6pt" viewBox="0 0 460.8 345.6" xmlns="http://www.w3.org/2000/svg" version="1.1">
 <metadata>
  <rdf:RDF xmlns:dc="http://purl.org/dc/elements/1.1/" xmlns:cc="http://creativecommons.org/ns#" xmlns:rdf="http://www.w3.org/1999/02/22-rdf-syntax-ns#">
   <cc:Work>
    <dc:type rdf:resource="http://purl.org/dc/dcmitype/StillImage"/>
    <dc:date>2026-04-11T19:03:23.873260</dc:date>
    <dc:format>image/svg+xml</dc:format>
    <dc:creator>
     <cc:Agent>
      <dc:title>Matplotlib v3.10.6, https://matplotlib.org/</dc:title>
     </cc:Agent>
    </dc:creator>
   </cc:Work>
  </rdf:RDF>
 </metadata>
 <defs>
  <style type="text/css">*{stroke-linejoin: round; stroke-linecap: butt}</style>
 </defs>
 <g id="figure_1">
  <g id="patch_1">
   <path d="M 0 345.6 
L 460.8 345.6 
L 460.8 0 
L 0 0 
z
" style="fill: #ffffff"/>
  </g>
  <g id="axes_1">
   <g id="patch_2">
    <path d="M 57.6 307.584 
L 414.72 307.584 
L 414.72 41.472 
L 57.6 41.472 
z
" style="fill: #ffffff"/>
   </g>
   <g id="matplotlib.axis_1">
    <g id="xtick_1">
     <g id="line2d_1">
      <defs>
       <path id="m10ef011867" d="M 0 0 
L 0 3.5 
" style="stroke: #000000; stroke-width: 0.8"/>
      </defs>
      <g>
       <use xlink:href="#m10ef011867" x="73.832727" y="307.584" style="stroke: #000000; stroke-width: 0.8"/>
      </g>
     </g>
     <g id="text_1">
      <!-- 0.0 -->
      <g transform="translate(65.881165 322.182437) scale(0.1 -0.1)">
       <defs>
        <path id="DejaVuSans-30" d="M 2034 4250 
Q 1547 4250 1301 3770 
Q 1056 3291 1056 2328 
Q 1056 1369 1301 889 
Q 1547 409 2034 409 
Q 2525 409 2770 889 
Q 3016 1369 3016 2328 
Q 3016 3291 2770 3770 
Q 2525 4250 2034 4250 
z
M 2034 4750 
Q 2819 4750 3233 4129 
Q 3647 3509 3647 2328 
Q 3647 1150 3233 529 
Q 2819 -91 2034 -91 
Q 1250 -91 836 529 
Q 422 1150 422 2328 
Q 422 3509 836 4129 
Q 1250 4750 2034 4750 
z
" transform="scale(0.015625)"/>
        <path id="DejaVuSans-2e" d="M 684 794 
L 1344 794 
L 1344 0 
L 684 0 
L 684 794 
z
" transform="scale(0.015625)"/>
       </defs>
       <use xlink:href="#DejaVuSans-30"/>
       <use xlink:href="#DejaVuSans-2e" transform="translate(63.623047 0)"/>
       <use xlink:href="#DejaVuSans-30" transform="translate(95.410156 0)"/>
      </g>
     </g>
    </g>
    <g id="xtick_2">
     <g id="line2d_2">
      <g>
       <use xlink:href="#m10ef011867" x="138.763636" y="307.584" style="stroke: #000000; stroke-width: 0.8"/>
      </g>
     </g>
     <g id="text_2">
      <!-- 0.2 -->
      <g transform="translate(130.812074 322.182437) scale(0.1 -0.1)">
       <defs>
        <path id="DejaVuSans-32" d="M 1228 531 
L 3431 531 
L 3431 0 
L 469 0 
L 469 531 
Q 828 903 1448 1529 
Q 2069 2156 2228 2338 
Q 2531 2678 2651 2914 
Q 2772 3150 2772 3378 
Q 2772 3750 2511 3984 
Q 2250 4219 1831 4219 
Q 1534 4219 1204 4116 
Q 875 4013 500 3803 
L 500 4441 
Q 881 4594 1212 4672 
Q 1544 4750 1819 4750 
Q 2544 4750 2975 4387 
Q 3406 4025 3406 3419 
Q 3406 3131 3298 2873 
Q 3191 2616 2906 2266 
Q 2828 2175 2409 1742 
Q 1991 1309 1228 531 
z
" transform="scale(0.015625)"/>
       </defs>
       <use xlink:href="#DejaVuSans-30"/>
       <use xlink:href="#DejaVuSans-2e" transform="translate(63.623047 0)"/>
       <use xlink:href="#DejaVuSans-32" transform="translate(95.410156 0)"/>
      </g>
     </g>
    </g>
    <g id="xtick_3">
     <g id="line2d_3">
      <g>
       <use xlink:href="#m10ef011867" x="203.694545" y="307.584" style="stroke: #000000; stroke-width: 0.8"/>
      </g>
     </g>
     <g id="text_3">
      <!-- 0.4 -->
      <g transform="translate(195.742983 322.182437) scale(0.1 -0.1)">
       <defs>
        <path id="DejaVuSans-34" d="M 2419 4116 
L 825 1625 
L 2419 1625 
L 2419 4116 
z
M 2253 4666 
L 3047 4666 
L 3047 1625 
L 3713 1625 
L 3713 1100 
L 3047 1100 
L 3047 0 
L 2419 0 
L 2419 1100 
L 313 1100 
L 313 1709 
L 2253 4666 
z
" transform="scale(0.015625)"/>
       </defs>
       <use xlink:href="#DejaVuSans-30"/>
       <use xlink:href="#DejaVuSans-2e" transform="translate(63.623047 0)"/>
       <use xlink:href="#DejaVuSans-34" transform="translate(95.410156 0)"/>
      </g>
     </g>
    </g>
    <g id="xtick_4">
     <g id="line2d_4">
      <g>
       <use xlink:href="#m10ef011867" x="268.625455" y="307.584" style="stroke: #000000; stroke-width: 0.8"/>
      </g>
     </g>
     <g id="text_4">
      <!-- 0.6 -->
      <g transform="translate(260.673892 322.182437) scale(0.1 -0.1)">
       <defs>
        <path id="DejaVuSans-36" d="M 2113 2584 
Q 1688 2584 1439 2293 
Q 1191 2003 1191 1497 
Q 1191 994 1439 701 
Q 1688 409 2113 409 
Q 2538 409 2786 701 
Q 3034 994 3034 1497 
Q 3034 2003 2786 2293 
Q 2538 2584 2113 2584 
z
M 3366 4563 
L 3366 3988 
Q 3128 4100 2886 4159 
Q 2644 4219 2406 4219 
Q 1781 4219 1451 3797 
Q 1122 3375 1075 2522 
Q 1259 2794 1537 2939 
Q 1816 3084 2150 3084 
Q 2853 3084 3261 2657 
Q 3669 2231 3669 1497 
Q 3669 778 3244 343 
Q 2819 -91 2113 -91 
Q 1303 -91 875 529 
Q 447 1150 447 2328 
Q 447 3434 972 4092 
Q 1497 4750 2381 4750 
Q 2619 4750 2861 4703 
Q 3103 4656 3366 4563 
z
" transform="scale(0.015625)"/>
       </defs>
       <use xlink:href="#DejaVuSans-30"/>
       <use xlink:href="#DejaVuSans-2e" transform="translate(63.623047 0)"/>
       <use xlink:href="#DejaVuSans-36" transform="translate(95.410156 0)"/>
      </g>
     </g>
    </g>
    <g id="xtick_5">
     <g id="line2d_5">
      <g>
       <use xlink:href="#m10ef011867" x="333.556364" y="307.584" style="stroke: #000000; stroke-width: 0.8"/>
      </g>
     </g>
     <g id="text_5">
      <!-- 0.8 -->
      <g transform="translate(325.604801 322.182437) scale(0.1 -0.1)">
       <defs>
        <path id="DejaVuSans-38" d="M 2034 2216 
Q 1584 2216 1326 1975 
Q 1069 1734 1069 1313 
Q 1069 891 1326 650 
Q 1584 409 2034 409 
Q 2484 409 2743 651 
Q 3003 894 3003 1313 
Q 3003 1734 2745 1975 
Q 2488 2216 2034 2216 
z
M 1403 2484 
Q 997 2584 770 2862 
Q 544 3141 544 3541 
Q 544 4100 942 4425 
Q 1341 4750 2034 4750 
Q 2731 4750 3128 4425 
Q 3525 4100 3525 3541 
Q 3525 3141 3298 2862 
Q 3072 2584 2669 2484 
Q 3125 2378 3379 2068 
Q 3634 1759 3634 1313 
Q 3634 634 3220 271 
Q 2806 -91 2034 -91 
Q 1263 -91 848 271 
Q 434 634 434 1313 
Q 434 1759 690 2068 
Q 947 2378 1403 2484 
z
M 1172 3481 
Q 1172 3119 1398 2916 
Q 1625 2713 2034 2713 
Q 2441 2713 2670 2916 
Q 2900 3119 2900 3481 
Q 2900 3844 2670 4047 
Q 2441 4250 2034 4250 
Q 1625 4250 1398 4047 
Q 1172 3844 1172 3481 
z
" transform="scale(0.015625)"/>
       </defs>
       <use xlink:href="#DejaVuSans-30"/>
       <use xlink:href="#DejaVuSans-2e" transform="translate(63.623047 0)"/>
       <use xlink:href="#DejaVuSans-38" transform="translate(95.410156 0)"/>
      </g>
     </g>
    </g>
    <g id="xtick_6">
     <g id="line2d_6">
      <g>
       <use xlink:href="#m10ef011867" x="398.487273" y="307.584" style="stroke: #000000; stroke-width: 0.8"/>
      </g>
     </g>
     <g id="text_6">
      <!-- 1.0 -->
      <g transform="translate(390.53571 322.182437) scale(0.1 -0.1)">
       <defs>
        <path id="DejaVuSans-31" d="M 794 531 
L 1825 531 
L 1825 4091 
L 703 3866 
L 703 4441 
L 1819 4666 
L 2450 4666 
L 2450 531 
L 3481 531 
L 3481 0 
L 794 0 
L 794 531 
z
" transform="scale(0.015625)"/>
       </defs>
       <use xlink:href="#DejaVuSans-31"/>
       <use xlink:href="#DejaVuSans-2e" transform="translate(63.623047 0)"/>
       <use xlink:href="#DejaVuSans-30" transform="translate(95.410156 0)"/>
      </g>
     </g>
    </g>
    <g id="text_7">
     <!-- t -->
     <g transform="translate(234.199844 335.860562) scale(0.1 -0.1)">
      <defs>
       <path id="DejaVuSans-74" d="M 1172 4494 
L 1172 3500 
L 2356 3500 
L 2356 3053 
L 1172 3053 
L 1172 1153 
Q 1172 725 1289 603 
Q 1406 481 1766 481 
L 2356 481 
L 2356 0 
L 1766 0 
Q 1100 0 847 248 
Q 594 497 594 1153 
L 594 3053 
L 172 3053 
L 172 3500 
L 594 3500 
L 594 4494 
L 1172 4494 
z
" transform="scale(0.015625)"/>
      </defs>
      <use xlink:href="#DejaVuSans-74"/>
     </g>
    </g>
   </g>
   <g id="matplotlib.axis_2">
    <g id="ytick_1">
     <g id="line2d_7">
      <defs>
       <path id="m63b7577cae" d="M 0 0 
L -3.5 0 
" style="stroke: #000000; stroke-width: 0.8"/>
      </defs>
      <g>
       <use xlink:href="#m63b7577cae" x="57.6" y="303.34416" style="stroke: #000000; stroke-width: 0.8"/>
      </g>
     </g>
     <g id="text_8">
      <!-- −0.03 -->
      <g transform="translate(19.954687 307.143379) scale(0.1 -0.1)">
       <defs>
        <path id="DejaVuSans-2212" d="M 678 2272 
L 4684 2272 
L 4684 1741 
L 678 1741 
L 678 2272 
z
" transform="scale(0.015625)"/>
        <path id="DejaVuSans-33" d="M 2597 2516 
Q 3050 2419 3304 2112 
Q 3559 1806 3559 1356 
Q 3559 666 3084 287 
Q 2609 -91 1734 -91 
Q 1441 -91 1130 -33 
Q 819 25 488 141 
L 488 750 
Q 750 597 1062 519 
Q 1375 441 1716 441 
Q 2309 441 2620 675 
Q 2931 909 2931 1356 
Q 2931 1769 2642 2001 
Q 2353 2234 1838 2234 
L 1294 2234 
L 1294 2753 
L 1863 2753 
Q 2328 2753 2575 2939 
Q 2822 3125 2822 3475 
Q 2822 3834 2567 4026 
Q 2313 4219 1838 4219 
Q 1578 4219 1281 4162 
Q 984 4106 628 3988 
L 628 4550 
Q 988 4650 1302 4700 
Q 1616 4750 1894 4750 
Q 2613 4750 3031 4423 
Q 3450 4097 3450 3541 
Q 3450 3153 3228 2886 
Q 3006 2619 2597 2516 
z
" transform="scale(0.015625)"/>
       </defs>
       <use xlink:href="#DejaVuSans-2212"/>
       <use xlink:href="#DejaVuSans-30" transform="translate(83.789062 0)"/>
       <use xlink:href="#DejaVuSans-2e" transform="translate(147.412109 0)"/>
       <use xlink:href="#DejaVuSans-30" transform="translate(179.199219 0)"/>
       <use xlink:href="#DejaVuSans-33" transform="translate(242.822266 0)"/>
      </g>
     </g>
    </g>
    <g id="ytick_2">
     <g id="line2d_8">
      <g>
       <use xlink:href="#m63b7577cae" x="57.6" y="267.145367" style="stroke: #000000; stroke-width: 0.8"/>
      </g>
     </g>
     <g id="text_9">
      <!-- −0.02 -->
      <g transform="translate(19.954687 270.944586) scale(0.1 -0.1)">
       <use xlink:href="#DejaVuSans-2212"/>
       <use xlink:href="#DejaVuSans-30" transform="translate(83.789062 0)"/>
       <use xlink:href="#DejaVuSans-2e" transform="translate(147.412109 0)"/>
       <use xlink:href="#DejaVuSans-30" transform="translate(179.199219 0)"/>
       <use xlink:href="#DejaVuSans-32" transform="translate(242.822266 0)"/>
      </g>
     </g>
    </g>
    <g id="ytick_3">
     <g id="line2d_9">
      <g>
       <use xlink:href="#m63b7577cae" x="57.6" y="230.946575" style="stroke: #000000; stroke-width: 0.8"/>
      </g>
     </g>
     <g id="text_10">
      <!-- −0.01 -->
      <g transform="translate(19.954687 234.745794) scale(0.1 -0.1)">
       <use xlink:href="#DejaVuSans-2212"/>
       <use xlink:href="#DejaVuSans-30" transform="translate(83.789062 0)"/>
       <use xlink:href="#DejaVuSans-2e" transform="translate(147.412109 0)"/>
       <use xlink:href="#DejaVuSans-30" transform="translate(179.199219 0)"/>
       <use xlink:href="#DejaVuSans-31" transform="translate(242.822266 0)"/>
      </g>
     </g>
    </g>
    <g id="ytick_4">
     <g id="line2d_10">
      <g>
       <use xlink:href="#m63b7577cae" x="57.6" y="194.747783" style="stroke: #000000; stroke-width: 0.8"/>
      </g>
     </g>
     <g id="text_11">
      <!-- 0.00 -->
      <g transform="translate(28.334375 198.547001) scale(0.1 -0.1)">
       <use xlink:href="#DejaVuSans-30"/>
       <use xlink:href="#DejaVuSans-2e" transform="translate(63.623047 0)"/>
       <use xlink:href="#DejaVuSans-30" transform="translate(95.410156 0)"/>
       <use xlink:href="#DejaVuSans-30" transform="translate(159.033203 0)"/>
      </g>
     </g>
    </g>
    <g id="ytick_5">
     <g id="line2d_11">
      <g>
       <use xlink:href="#m63b7577cae" x="57.6" y="158.54899" style="stroke: #000000; stroke-width: 0.8"/>
      </g>
     </g>
     <g id="text_12">
      <!-- 0.01 -->
      <g transform="translate(28.334375 162.348209) scale(0.1 -0.1)">
       <use xlink:href="#DejaVuSans-30"/>
       <use xlink:href="#DejaVuSans-2e" transform="translate(63.623047 0)"/>
       <use xlink:href="#DejaVuSans-30" transform="translate(95.410156 0)"/>
       <use xlink:href="#DejaVuSans-31" transform="translate(159.033203 0)"/>
      </g>
     </g>
    </g>
    <g id="ytick_6">
     <g id="line2d_12">
      <g>
       <use xlink:href="#m63b7577cae" x="57.6" y="122.350198" style="stroke: #000000; stroke-width: 0.8"/>
      </g>
     </g>
     <g id="text_13">
      <!-- 0.02 -->
      <g transform="translate(28.334375 126.149416) scale(0.1 -0.1)">
       <use xlink:href="#DejaVuSans-30"/>
       <use xlink:href="#DejaVuSans-2e" transform="translate(63.623047 0)"/>
       <use xlink:href="#DejaVuSans-30" transform="translate(95.410156 0)"/>
       <use xlink:href="#DejaVuSans-32" transform="translate(159.033203 0)"/>
      </g>
     </g>
    </g>
    <g id="ytick_7">
     <g id="line2d_13">
      <g>
       <use xlink:href="#m63b7577cae" x="57.6" y="86.151405" style="stroke: #000000; stroke-width: 0.8"/>
      </g>
     </g>
     <g id="text_14">
      <!-- 0.03 -->
      <g transform="translate(28.334375 89.950624) scale(0.1 -0.1)">
       <use xlink:href="#DejaVuSans-30"/>
       <use xlink:href="#DejaVuSans-2e" transform="translate(63.623047 0)"/>
       <use xlink:href="#DejaVuSans-30" transform="translate(95.410156 0)"/>
       <use xlink:href="#DejaVuSans-33" transform="translate(159.033203 0)"/>
      </g>
     </g>
    </g>
    <g id="ytick_8">
     <g id="line2d_14">
      <g>
       <use xlink:href="#m63b7577cae" x="57.6" y="49.952613" style="stroke: #000000; stroke-width: 0.8"/>
      </g>
     </g>
     <g id="text_15">
      <!-- 0.04 -->
      <g transform="translate(28.334375 53.751831) scale(0.1 -0.1)">
       <use xlink:href="#DejaVuSans-30"/>
       <use xlink:href="#DejaVuSans-2e" transform="translate(63.623047 0)"/>
       <use xlink:href="#DejaVuSans-30" transform="translate(95.410156 0)"/>
       <use xlink:href="#DejaVuSans-34" transform="translate(159.033203 0)"/>
      </g>
     </g>
    </g>
    <g id="text_16">
     <!-- current -->
     <g transform="translate(13.875 192.562375) rotate(-90) scale(0.1 -0.1)">
      <defs>
       <path id="DejaVuSans-63" d="M 3122 3366 
L 3122 2828 
Q 2878 2963 2633 3030 
Q 2388 3097 2138 3097 
Q 1578 3097 1268 2742 
Q 959 2388 959 1747 
Q 959 1106 1268 751 
Q 1578 397 2138 397 
Q 2388 397 2633 464 
Q 2878 531 3122 666 
L 3122 134 
Q 2881 22 2623 -34 
Q 2366 -91 2075 -91 
Q 1284 -91 818 406 
Q 353 903 353 1747 
Q 353 2603 823 3093 
Q 1294 3584 2113 3584 
Q 2378 3584 2631 3529 
Q 2884 3475 3122 3366 
z
" transform="scale(0.015625)"/>
       <path id="DejaVuSans-75" d="M 544 1381 
L 544 3500 
L 1119 3500 
L 1119 1403 
Q 1119 906 1312 657 
Q 1506 409 1894 409 
Q 2359 409 2629 706 
Q 2900 1003 2900 1516 
L 2900 3500 
L 3475 3500 
L 3475 0 
L 2900 0 
L 2900 538 
Q 2691 219 2414 64 
Q 2138 -91 1772 -91 
Q 1169 -91 856 284 
Q 544 659 544 1381 
z
M 1991 3584 
L 1991 3584 
z
" transform="scale(0.015625)"/>
       <path id="DejaVuSans-72" d="M 2631 2963 
Q 2534 3019 2420 3045 
Q 2306 3072 2169 3072 
Q 1681 3072 1420 2755 
Q 1159 2438 1159 1844 
L 1159 0 
L 581 0 
L 581 3500 
L 1159 3500 
L 1159 2956 
Q 1341 3275 1631 3429 
Q 1922 3584 2338 3584 
Q 2397 3584 2469 3576 
Q 2541 3569 2628 3553 
L 2631 2963 
z
" transform="scale(0.015625)"/>
       <path id="DejaVuSans-65" d="M 3597 1894 
L 3597 1613 
L 953 1613 
Q 991 1019 1311 708 
Q 1631 397 2203 397 
Q 2534 397 2845 478 
Q 3156 559 3463 722 
L 3463 178 
Q 3153 47 2828 -22 
Q 2503 -91 2169 -91 
Q 1331 -91 842 396 
Q 353 884 353 1716 
Q 353 2575 817 3079 
Q 1281 3584 2069 3584 
Q 2775 3584 3186 3129 
Q 3597 2675 3597 1894 
z
M 3022 2063 
Q 3016 2534 2758 2815 
Q 2500 3097 2075 3097 
Q 1594 3097 1305 2825 
Q 1016 2553 972 2059 
L 3022 2063 
z
" transform="scale(0.015625)"/>
       <path id="DejaVuSans-6e" d="M 3513 2113 
L 3513 0 
L 2938 0 
L 2938 2094 
Q 2938 2591 2744 2837 
Q 2550 3084 2163 3084 
Q 1697 3084 1428 2787 
Q 1159 2491 1159 1978 
L 1159 0 
L 581 0 
L 581 3500 
L 1159 3500 
L 1159 2956 
Q 1366 3272 1645 3428 
Q 1925 3584 2291 3584 
Q 2894 3584 3203 3211 
Q 3513 2838 3513 2113 
z
" transform="scale(0.015625)"/>
      </defs>
      <use xlink:href="#DejaVuSans-63"/>
      <use xlink:href="#DejaVuSans-75" transform="translate(54.980469 0)"/>
      <use xlink:href="#DejaVuSans-72" transform="translate(118.359375 0)"/>
      <use xlink:href="#DejaVuSans-72" transform="translate(157.722656 0)"/>
      <use xlink:href="#DejaVuSans-65" transform="translate(196.585938 0)"/>
      <use xlink:href="#DejaVuSans-6e" transform="translate(258.109375 0)"/>
      <use xlink:href="#DejaVuSans-74" transform="translate(321.488281 0)"/>
     </g>
    </g>
   </g>
   <g id="line2d_15">
    <path d="M 73.832727 194.747783 
L 74.651598 194.651914 
L 75.209128 194.297362 
L 75.766657 193.515694 
L 76.138343 192.68315 
L 76.881716 190.09889 
L 77.625088 186.089681 
L 78.368461 180.497811 
L 79.111833 173.267015 
L 80.226892 159.484823 
L 81.34195 142.751332 
L 85.802185 71.695952 
L 86.545557 63.689462 
L 87.28893 57.849353 
L 87.660616 55.823624 
L 88.032302 54.425654 
L 88.403988 53.670903 
L 88.775675 53.568 
L 89.147361 54.11861 
L 89.519047 55.317394 
L 89.890733 57.152063 
L 90.634106 62.646046 
L 91.377478 70.370616 
L 92.492537 85.410434 
L 93.979282 109.656394 
L 96.581085 152.659503 
L 97.696144 167.351099 
L 98.439516 175.063923 
L 99.182888 180.906571 
L 99.926261 184.823275 
L 100.297947 186.071748 
L 100.669633 186.866881 
L 101.04132 187.231548 
L 101.413006 187.194575 
L 101.784692 186.790319 
L 102.156378 186.058164 
L 102.899751 183.789421 
L 104.014809 179.134077 
L 105.501554 172.893003 
L 106.244927 170.738637 
L 106.616613 170.076618 
L 106.988299 169.74815 
L 107.359985 169.790018 
L 107.731671 170.233731 
L 108.103358 171.105075 
L 108.475044 172.423737 
L 109.218416 176.449608 
L 109.961789 182.337916 
L 110.705161 190.007953 
L 111.82022 204.423288 
L 113.306965 227.396349 
L 115.908768 268.140686 
L 117.023827 281.727381 
L 117.767199 288.479293 
L 118.510572 293.055855 
L 118.882258 294.469564 
L 119.253944 295.281986 
L 119.62563 295.488 
L 119.997316 295.08944 
L 120.369003 294.095073 
L 120.740689 292.520488 
L 121.484061 287.725889 
L 122.227434 280.957297 
L 123.342492 267.866266 
L 125.200923 241.871135 
L 126.687668 221.636645 
L 127.802727 209.132076 
L 128.546099 202.718491 
L 129.289472 198.109579 
L 130.032844 195.418932 
L 130.40453 194.798917 
L 130.877602 194.692106 
L 131.350674 195.31606 
L 131.761595 196.411835 
L 132.583437 199.96133 
L 133.317314 204.359413 
L 134.917884 216.042758 
L 136.417146 226.348236 
L 137.416654 231.070454 
L 137.916408 232.450667 
L 138.416162 233.061377 
L 138.915916 232.838471 
L 139.41567 231.738648 
L 139.915424 229.739568 
L 140.415178 226.841302 
L 141.414686 218.456838 
L 142.414194 207.016475 
L 143.913456 185.806144 
L 146.412226 148.473965 
L 147.411734 136.175291 
L 148.411242 126.884758 
L 148.910996 123.595848 
L 149.41075 121.292806 
L 149.910504 120.014938 
L 150.410258 119.774773 
L 150.910012 120.559334 
L 151.348532 122.079834 
L 151.787052 124.324577 
L 152.664092 130.82855 
L 153.618967 140.42645 
L 155.168033 159.400334 
L 157.233455 184.764932 
L 158.266165 194.757379 
L 158.782521 198.649687 
L 159.298876 201.693058 
L 159.815231 203.830079 
L 160.331587 205.02267 
L 160.847942 205.269732 
L 161.310824 204.694907 
L 161.773705 203.401049 
L 162.236587 201.432708 
L 163.16235 195.718937 
L 164.088114 188.177284 
L 167.328285 159.286412 
L 168.254049 153.852732 
L 168.71693 152.066399 
L 169.179812 150.985567 
L 169.642694 150.656508 
L 170.105575 151.110163 
L 170.568457 152.361477 
L 171.031339 154.40904 
L 171.49422 157.235073 
L 172.419984 165.071812 
L 173.345747 175.42214 
L 174.734392 194.175145 
L 177.0488 226.825077 
L 177.974563 237.73114 
L 178.900327 246.214599 
L 179.363208 249.362091 
L 179.82609 251.708303 
L 180.288972 253.218452 
L 180.751853 253.873897 
L 181.214735 253.672499 
L 181.677617 252.628661 
L 182.140498 250.773021 
L 182.60338 248.151825 
L 183.529143 240.869838 
L 184.454907 231.421799 
L 188.620842 184.966276 
L 189.546605 178.795686 
L 190.009487 176.75886 
L 190.472368 175.473874 
L 190.93525 174.960599 
L 191.398132 175.222566 
L 191.861013 176.246917 
L 192.323895 178.004688 
L 192.786777 180.451428 
L 193.71254 187.162414 
L 194.638303 195.756927 
L 197.878475 228.696641 
L 198.804238 235.346891 
L 199.26712 237.741798 
L 199.730001 239.428248 
L 200.192883 240.357489 
L 200.655765 240.496042 
L 201.118646 239.82641 
L 201.581528 238.347459 
L 202.04441 236.074477 
L 202.970173 229.287657 
L 203.895936 219.897887 
L 205.284581 202.38697 
L 208.061871 165.696969 
L 208.987635 156.233431 
L 209.913398 149.391258 
L 210.37628 147.108769 
L 210.839161 145.638991 
L 211.302043 145.002286 
L 211.764925 145.202577 
L 212.227806 146.227273 
L 212.690688 148.047542 
L 213.15357 150.618901 
L 214.079333 157.76447 
L 215.005096 167.036985 
L 218.708149 208.52732 
L 219.633913 215.672105 
L 220.096794 218.269491 
L 220.559676 220.142877 
L 221.022558 221.255478 
L 221.485439 221.586429 
L 221.948321 221.131192 
L 222.411203 219.901643 
L 222.874084 217.925814 
L 223.799848 211.924436 
L 224.725611 203.644631 
L 226.114256 188.539254 
L 227.965783 167.951431 
L 228.891546 159.461892 
L 229.817309 153.209126 
L 230.280191 151.107605 
L 230.743073 149.76194 
L 231.205954 149.207861 
L 231.668836 149.465161 
L 232.131718 150.537271 
L 232.594599 152.411178 
L 233.057481 155.057663 
L 233.983244 162.474246 
L 234.909007 172.258827 
L 236.297652 189.763349 
L 238.612061 219.095596 
L 239.537824 228.30326 
L 240.463587 234.966525 
L 240.926469 237.185271 
L 241.389351 238.606492 
L 241.852232 239.208243 
L 242.315114 238.984968 
L 242.777996 237.947604 
L 243.240877 236.123349 
L 243.703759 233.555103 
L 244.629522 226.431165 
L 245.555286 217.192302 
L 249.258339 175.848483 
L 250.184102 168.745566 
L 250.646984 166.17373 
L 251.109866 164.330507 
L 251.572747 163.25394 
L 252.035629 162.966204 
L 252.49851 163.473157 
L 252.961392 164.76423 
L 253.424274 166.81264 
L 254.350037 172.996915 
L 255.2758 181.516198 
L 256.664445 197.097114 
L 258.515972 218.535366 
L 259.441735 227.530793 
L 260.367499 234.329512 
L 260.83038 236.714772 
L 261.293262 238.348803 
L 261.756144 239.193845 
L 262.219025 239.228021 
L 262.681907 238.445793 
L 263.144789 236.858084 
L 263.60767 234.492071 
L 264.533434 227.611535 
L 265.459197 218.318292 
L 266.847842 201.443119 
L 269.16225 172.827876 
L 270.088014 163.792567 
L 271.013777 157.245498 
L 271.476658 155.066886 
L 271.93954 153.675734 
L 272.402422 153.095527 
L 272.865303 153.333409 
L 273.328185 154.380038 
L 273.791067 156.209792 
L 274.253948 158.781288 
L 275.179712 165.910572 
L 276.105475 175.161213 
L 280.27141 220.604947 
L 281.197173 226.507404 
L 281.660055 228.390471 
L 282.122937 229.503791 
L 282.585818 229.823704 
L 283.0487 229.342843 
L 283.511582 228.070282 
L 283.974463 226.031354 
L 284.900227 219.833599 
L 285.82599 211.249924 
L 287.214635 195.463038 
L 289.529043 168.652499 
L 290.454806 160.321118 
L 291.38057 154.465438 
L 291.843451 152.628105 
L 292.306333 151.575618 
L 292.769215 151.331786 
L 293.232096 151.904107 
L 293.694978 153.283614 
L 294.15786 155.445046 
L 295.083623 161.934533 
L 296.009386 170.87172 
L 297.398031 187.30078 
L 299.71244 215.447921 
L 300.638203 224.389743 
L 301.563966 230.887385 
L 302.026848 233.054683 
L 302.48973 234.441535 
L 302.952611 235.022911 
L 303.415493 234.790086 
L 303.878375 233.750805 
L 304.341256 231.929125 
L 304.804138 229.364921 
L 305.729901 222.242335 
L 306.655665 212.98003 
L 308.970073 185.758234 
L 310.358718 171.115453 
L 311.284481 163.791922 
L 311.747363 161.105831 
L 312.210244 159.149344 
L 312.673126 157.96346 
L 313.136008 157.573424 
L 313.598889 157.988215 
L 314.061771 159.200361 
L 314.524653 161.186092 
L 314.987534 163.905822 
L 315.913298 171.314983 
L 316.839061 180.832809 
L 321.004996 227.444272 
L 321.930759 233.577154 
L 322.393641 235.563593 
L 322.856523 236.769884 
L 323.319404 237.170396 
L 323.782286 236.755768 
L 324.245168 235.533108 
L 324.708049 233.525853 
L 325.170931 230.773291 
L 326.096694 223.263615 
L 327.022458 213.597889 
L 329.336866 185.292088 
L 330.725511 169.960881 
L 331.651274 162.175276 
L 332.114156 159.260493 
L 332.577037 157.078537 
L 333.039919 155.671721 
L 333.502801 155.066635 
L 333.965682 155.273607 
L 334.428564 156.286502 
L 334.891446 158.082845 
L 335.354327 160.624284 
L 336.280091 167.714653 
L 337.205854 176.970419 
L 339.057381 198.819338 
L 340.446026 214.59868 
L 341.371789 223.193096 
L 342.297552 229.40456 
L 342.760434 231.448153 
L 343.223316 232.721961 
L 343.686197 233.199107 
L 344.149079 232.868948 
L 344.611961 231.737295 
L 345.074842 229.826289 
L 345.537724 227.173961 
L 346.463487 219.871941 
L 347.38925 210.41638 
L 349.240777 188.19906 
L 350.629422 172.171651 
L 351.555185 163.428393 
L 352.480949 157.084712 
L 352.94383 154.982368 
L 353.406712 153.65537 
L 353.869594 153.131102 
L 354.332475 153.420714 
L 354.795357 154.518894 
L 355.258239 156.403975 
L 355.72112 159.038371 
L 356.646884 166.330041 
L 357.572647 175.811266 
L 359.424174 198.192196 
L 360.812819 214.437455 
L 361.738582 223.366203 
L 362.664345 229.922429 
L 363.127227 232.139497 
L 363.590109 233.585857 
L 364.05299 234.233343 
L 364.515872 234.070001 
L 364.978754 233.100337 
L 365.441635 231.345219 
L 365.904517 228.841452 
L 366.83028 221.81008 
L 367.756043 212.583412 
L 369.60757 190.677539 
L 370.996215 174.748866 
L 371.921978 166.010918 
L 372.847742 159.630402 
L 373.310623 157.496142 
L 373.773505 156.129645 
L 374.236387 155.559437 
L 374.699268 155.797848 
L 375.16215 156.840763 
L 375.625032 158.667698 
L 376.087913 161.242223 
L 377.013677 168.413299 
L 377.93944 177.779143 
L 379.790967 199.966924 
L 381.179612 216.109449 
L 382.105375 224.987906 
L 383.031138 231.50366 
L 383.49402 233.702346 
L 383.956902 235.130426 
L 384.419783 235.758813 
L 384.882665 235.574609 
L 385.345546 234.58137 
L 385.808428 232.799033 
L 386.27131 230.263514 
L 387.197073 223.151803 
L 388.122836 213.817897 
L 389.974363 191.604423 
L 391.363008 175.364125 
L 392.288771 166.386537 
L 393.214535 159.748621 
L 393.677416 157.481637 
L 394.140298 155.981297 
L 394.60318 155.277367 
L 395.066061 155.38344 
L 395.528943 156.296662 
L 395.991825 157.997793 
L 396.454706 160.451597 
L 397.38047 167.400919 
L 398.487273 178.571411 
L 398.487273 178.571411 
" clip-path="url(#p25302f62d2)" style="fill: none; stroke: #1f77b4; stroke-width: 1.5; stroke-linecap: square"/>
   </g>
   <g id="patch_3">
    <path d="M 57.6 307.584 
L 57.6 41.472 
" style="fill: none; stroke: #000000; stroke-width: 0.8; stroke-linejoin: miter; stroke-linecap: square"/>
   </g>
   <g id="patch_4">
    <path d="M 414.72 307.584 
L 414.72 41.472 
" style="fill: none; stroke: #000000; stroke-width: 0.8; stroke-linejoin: miter; stroke-linecap: square"/>
   </g>
   <g id="patch_5">
    <path d="M 57.6 307.584 
L 414.72 307.584 
" style="fill: none; stroke: #000000; stroke-width: 0.8; stroke-linejoin: miter; stroke-linecap: square"/>
   </g>
   <g id="patch_6">
    <path d="M 57.6 41.472 
L 414.72 41.472 
" style="fill: none; stroke: #000000; stroke-width: 0.8; stroke-linejoin: miter; stroke-linecap: square"/>
   </g>
  </g>
 </g>
 <defs>
  <clipPath id="p25302f62d2">
   <rect x="57.6" y="41.472" width="357.12" height="266.112"/>
  </clipPath>
 </defs>
</svg>
