<?xml version="1.0" encoding="utf-8" standalone="no"?>
<!DOCTYPE svg PUBLIC "-//W3C//DTD SVG 1.1//EN"
  "http://www.w3.org/Graphics/SVG/1.1/DTD/svg11.dtd">
<svg xmlns:xlink="http://www.w3.org/1999/xlink" width="460.8pt" height="345.6pt" viewBox="0 0 460.8 345.6" xmlns="http://www.w3.org/2000/svg" version="1.1">
 <metadata>
  <rdf:RDF xmlns:dc="http://purl.org/dc/elements/1.1/" xmlns:cc="http://creativecommons.org/ns#" xmlns:rdf="http://www.w3.org/1999/02/22-rdf-syntax-ns#">
   <cc:Work>
    <dc:type rdf:resource="http://purl.org/dc/dcmitype/StillImage"/>
    <dc:date>2026-04-29T08:56:27.296548</dc:date>
    <dc:format>image/svg+xml</dc:format>
    <dc:creator>
     <cc:Agent>
      <dc:title>Matplotlib v3.10.6, https://matplotlib.org/</dc:title>
     </cc:Agent>
    </dc:creator>
   </cc:Work>
  </rdf:RDF>
 </metadata>
 <defs>
  <style type="text/css">*{stroke-linejoin: round; stroke-linecap: butt}</style>
 </defs>
 <g id="figure_1">
  <g id="patch_1">
   <path d="M 0 345.6 
L 460.8 345.6 
L 460.8 0 
L 0 0 
z
" style="fill: #ffffff"/>
  </g>
  <g id="axes_1">
   <g id="patch_2">
    <path d="M 57.6 307.584 
L 414.72 307.584 
L 414.72 41.472 
L 57.6 41.472 
z
" style="fill: #ffffff"/>
   </g>
   <g id="matplotlib.axis_1">
    <g id="xtick_1">
     <g id="line2d_1">
      <defs>
       <path id="m97d727e7e2" d="M 0 0 
L 0 3.5 
" style="stroke: #000000; stroke-width: 0.8"/>
      </defs>
      <g>
       <use xlink:href="#m97d727e7e2" x="73.832727" y="307.584" style="stroke: #000000; stroke-width: 0.8"/>
      </g>
     </g>
     <g id="text_1">
      <!-- 0 -->
      <g transform="translate(70.651477 322.182437) scale(0.1 -0.1)">
       <defs>
        <path id="DejaVuSans-30" d="M 2034 4250 
Q 1547 4250 1301 3770 
Q 1056 3291 1056 2328 
Q 1056 1369 1301 889 
Q 1547 409 2034 409 
Q 2525 409 2770 889 
Q 3016 1369 3016 2328 
Q 3016 3291 2770 3770 
Q 2525 4250 2034 4250 
z
M 2034 4750 
Q 2819 4750 3233 4129 
Q 3647 3509 3647 2328 
Q 3647 1150 3233 529 
Q 2819 -91 2034 -91 
Q 1250 -91 836 529 
Q 422 1150 422 2328 
Q 422 3509 836 4129 
Q 1250 4750 2034 4750 
z
" transform="scale(0.015625)"/>
       </defs>
       <use xlink:href="#DejaVuSans-30"/>
      </g>
     </g>
    </g>
    <g id="xtick_2">
     <g id="line2d_2">
      <g>
       <use xlink:href="#m97d727e7e2" x="114.414545" y="307.584" style="stroke: #000000; stroke-width: 0.8"/>
      </g>
     </g>
     <g id="text_2">
      <!-- 5 -->
      <g transform="translate(111.233295 322.182437) scale(0.1 -0.1)">
       <defs>
        <path id="DejaVuSans-35" d="M 691 4666 
L 3169 4666 
L 3169 4134 
L 1269 4134 
L 1269 2991 
Q 1406 3038 1543 3061 
Q 1681 3084 1819 3084 
Q 2600 3084 3056 2656 
Q 3513 2228 3513 1497 
Q 3513 744 3044 326 
Q 2575 -91 1722 -91 
Q 1428 -91 1123 -41 
Q 819 9 494 109 
L 494 744 
Q 775 591 1075 516 
Q 1375 441 1709 441 
Q 2250 441 2565 725 
Q 2881 1009 2881 1497 
Q 2881 1984 2565 2268 
Q 2250 2553 1709 2553 
Q 1456 2553 1204 2497 
Q 953 2441 691 2322 
L 691 4666 
z
" transform="scale(0.015625)"/>
       </defs>
       <use xlink:href="#DejaVuSans-35"/>
      </g>
     </g>
    </g>
    <g id="xtick_3">
     <g id="line2d_3">
      <g>
       <use xlink:href="#m97d727e7e2" x="154.996364" y="307.584" style="stroke: #000000; stroke-width: 0.8"/>
      </g>
     </g>
     <g id="text_3">
      <!-- 10 -->
      <g transform="translate(148.633864 322.182437) scale(0.1 -0.1)">
       <defs>
        <path id="DejaVuSans-31" d="M 794 531 
L 1825 531 
L 1825 4091 
L 703 3866 
L 703 4441 
L 1819 4666 
L 2450 4666 
L 2450 531 
L 3481 531 
L 3481 0 
L 794 0 
L 794 531 
z
" transform="scale(0.015625)"/>
       </defs>
       <use xlink:href="#DejaVuSans-31"/>
       <use xlink:href="#DejaVuSans-30" transform="translate(63.623047 0)"/>
      </g>
     </g>
    </g>
    <g id="xtick_4">
     <g id="line2d_4">
      <g>
       <use xlink:href="#m97d727e7e2" x="195.578182" y="307.584" style="stroke: #000000; stroke-width: 0.8"/>
      </g>
     </g>
     <g id="text_4">
      <!-- 15 -->
      <g transform="translate(189.215682 322.182437) scale(0.1 -0.1)">
       <use xlink:href="#DejaVuSans-31"/>
       <use xlink:href="#DejaVuSans-35" transform="translate(63.623047 0)"/>
      </g>
     </g>
    </g>
    <g id="xtick_5">
     <g id="line2d_5">
      <g>
       <use xlink:href="#m97d727e7e2" x="236.16" y="307.584" style="stroke: #000000; stroke-width: 0.8"/>
      </g>
     </g>
     <g id="text_5">
      <!-- 20 -->
      <g transform="translate(229.7975 322.182437) scale(0.1 -0.1)">
       <defs>
        <path id="DejaVuSans-32" d="M 1228 531 
L 3431 531 
L 3431 0 
L 469 0 
L 469 531 
Q 828 903 1448 1529 
Q 2069 2156 2228 2338 
Q 2531 2678 2651 2914 
Q 2772 3150 2772 3378 
Q 2772 3750 2511 3984 
Q 2250 4219 1831 4219 
Q 1534 4219 1204 4116 
Q 875 4013 500 3803 
L 500 4441 
Q 881 4594 1212 4672 
Q 1544 4750 1819 4750 
Q 2544 4750 2975 4387 
Q 3406 4025 3406 3419 
Q 3406 3131 3298 2873 
Q 3191 2616 2906 2266 
Q 2828 2175 2409 1742 
Q 1991 1309 1228 531 
z
" transform="scale(0.015625)"/>
       </defs>
       <use xlink:href="#DejaVuSans-32"/>
       <use xlink:href="#DejaVuSans-30" transform="translate(63.623047 0)"/>
      </g>
     </g>
    </g>
    <g id="xtick_6">
     <g id="line2d_6">
      <g>
       <use xlink:href="#m97d727e7e2" x="276.741818" y="307.584" style="stroke: #000000; stroke-width: 0.8"/>
      </g>
     </g>
     <g id="text_6">
      <!-- 25 -->
      <g transform="translate(270.379318 322.182437) scale(0.1 -0.1)">
       <use xlink:href="#DejaVuSans-32"/>
       <use xlink:href="#DejaVuSans-35" transform="translate(63.623047 0)"/>
      </g>
     </g>
    </g>
    <g id="xtick_7">
     <g id="line2d_7">
      <g>
       <use xlink:href="#m97d727e7e2" x="317.323636" y="307.584" style="stroke: #000000; stroke-width: 0.8"/>
      </g>
     </g>
     <g id="text_7">
      <!-- 30 -->
      <g transform="translate(310.961136 322.182437) scale(0.1 -0.1)">
       <defs>
        <path id="DejaVuSans-33" d="M 2597 2516 
Q 3050 2419 3304 2112 
Q 3559 1806 3559 1356 
Q 3559 666 3084 287 
Q 2609 -91 1734 -91 
Q 1441 -91 1130 -33 
Q 819 25 488 141 
L 488 750 
Q 750 597 1062 519 
Q 1375 441 1716 441 
Q 2309 441 2620 675 
Q 2931 909 2931 1356 
Q 2931 1769 2642 2001 
Q 2353 2234 1838 2234 
L 1294 2234 
L 1294 2753 
L 1863 2753 
Q 2328 2753 2575 2939 
Q 2822 3125 2822 3475 
Q 2822 3834 2567 4026 
Q 2313 4219 1838 4219 
Q 1578 4219 1281 4162 
Q 984 4106 628 3988 
L 628 4550 
Q 988 4650 1302 4700 
Q 1616 4750 1894 4750 
Q 2613 4750 3031 4423 
Q 3450 4097 3450 3541 
Q 3450 3153 3228 2886 
Q 3006 2619 2597 2516 
z
" transform="scale(0.015625)"/>
       </defs>
       <use xlink:href="#DejaVuSans-33"/>
       <use xlink:href="#DejaVuSans-30" transform="translate(63.623047 0)"/>
      </g>
     </g>
    </g>
    <g id="xtick_8">
     <g id="line2d_8">
      <g>
       <use xlink:href="#m97d727e7e2" x="357.905455" y="307.584" style="stroke: #000000; stroke-width: 0.8"/>
      </g>
     </g>
     <g id="text_8">
      <!-- 35 -->
      <g transform="translate(351.542955 322.182437) scale(0.1 -0.1)">
       <use xlink:href="#DejaVuSans-33"/>
       <use xlink:href="#DejaVuSans-35" transform="translate(63.623047 0)"/>
      </g>
     </g>
    </g>
    <g id="xtick_9">
     <g id="line2d_9">
      <g>
       <use xlink:href="#m97d727e7e2" x="398.487273" y="307.584" style="stroke: #000000; stroke-width: 0.8"/>
      </g>
     </g>
     <g id="text_9">
      <!-- 40 -->
      <g transform="translate(392.124773 322.182437) scale(0.1 -0.1)">
       <defs>
        <path id="DejaVuSans-34" d="M 2419 4116 
L 825 1625 
L 2419 1625 
L 2419 4116 
z
M 2253 4666 
L 3047 4666 
L 3047 1625 
L 3713 1625 
L 3713 1100 
L 3047 1100 
L 3047 0 
L 2419 0 
L 2419 1100 
L 313 1100 
L 313 1709 
L 2253 4666 
z
" transform="scale(0.015625)"/>
       </defs>
       <use xlink:href="#DejaVuSans-34"/>
       <use xlink:href="#DejaVuSans-30" transform="translate(63.623047 0)"/>
      </g>
     </g>
    </g>
    <g id="text_10">
     <!-- t -->
     <g transform="translate(234.199844 335.860562) scale(0.1 -0.1)">
      <defs>
       <path id="DejaVuSans-74" d="M 1172 4494 
L 1172 3500 
L 2356 3500 
L 2356 3053 
L 1172 3053 
L 1172 1153 
Q 1172 725 1289 603 
Q 1406 481 1766 481 
L 2356 481 
L 2356 0 
L 1766 0 
Q 1100 0 847 248 
Q 594 497 594 1153 
L 594 3053 
L 172 3053 
L 172 3500 
L 594 3500 
L 594 4494 
L 1172 4494 
z
" transform="scale(0.015625)"/>
      </defs>
      <use xlink:href="#DejaVuSans-74"/>
     </g>
    </g>
   </g>
   <g id="matplotlib.axis_2">
    <g id="ytick_1">
     <g id="line2d_10">
      <defs>
       <path id="mdc3c8026f8" d="M 0 0 
L -3.5 0 
" style="stroke: #000000; stroke-width: 0.8"/>
      </defs>
      <g>
       <use xlink:href="#mdc3c8026f8" x="57.6" y="295.988988" style="stroke: #000000; stroke-width: 0.8"/>
      </g>
     </g>
     <g id="text_11">
      <!-- 0.2 -->
      <g transform="translate(34.696875 299.788207) scale(0.1 -0.1)">
       <defs>
        <path id="DejaVuSans-2e" d="M 684 794 
L 1344 794 
L 1344 0 
L 684 0 
L 684 794 
z
" transform="scale(0.015625)"/>
       </defs>
       <use xlink:href="#DejaVuSans-30"/>
       <use xlink:href="#DejaVuSans-2e" transform="translate(63.623047 0)"/>
       <use xlink:href="#DejaVuSans-32" transform="translate(95.410156 0)"/>
      </g>
     </g>
    </g>
    <g id="ytick_2">
     <g id="line2d_11">
      <g>
       <use xlink:href="#mdc3c8026f8" x="57.6" y="265.353364" style="stroke: #000000; stroke-width: 0.8"/>
      </g>
     </g>
     <g id="text_12">
      <!-- 0.4 -->
      <g transform="translate(34.696875 269.152582) scale(0.1 -0.1)">
       <use xlink:href="#DejaVuSans-30"/>
       <use xlink:href="#DejaVuSans-2e" transform="translate(63.623047 0)"/>
       <use xlink:href="#DejaVuSans-34" transform="translate(95.410156 0)"/>
      </g>
     </g>
    </g>
    <g id="ytick_3">
     <g id="line2d_12">
      <g>
       <use xlink:href="#mdc3c8026f8" x="57.6" y="234.717739" style="stroke: #000000; stroke-width: 0.8"/>
      </g>
     </g>
     <g id="text_13">
      <!-- 0.6 -->
      <g transform="translate(34.696875 238.516958) scale(0.1 -0.1)">
       <defs>
        <path id="DejaVuSans-36" d="M 2113 2584 
Q 1688 2584 1439 2293 
Q 1191 2003 1191 1497 
Q 1191 994 1439 701 
Q 1688 409 2113 409 
Q 2538 409 2786 701 
Q 3034 994 3034 1497 
Q 3034 2003 2786 2293 
Q 2538 2584 2113 2584 
z
M 3366 4563 
L 3366 3988 
Q 3128 4100 2886 4159 
Q 2644 4219 2406 4219 
Q 1781 4219 1451 3797 
Q 1122 3375 1075 2522 
Q 1259 2794 1537 2939 
Q 1816 3084 2150 3084 
Q 2853 3084 3261 2657 
Q 3669 2231 3669 1497 
Q 3669 778 3244 343 
Q 2819 -91 2113 -91 
Q 1303 -91 875 529 
Q 447 1150 447 2328 
Q 447 3434 972 4092 
Q 1497 4750 2381 4750 
Q 2619 4750 2861 4703 
Q 3103 4656 3366 4563 
z
" transform="scale(0.015625)"/>
       </defs>
       <use xlink:href="#DejaVuSans-30"/>
       <use xlink:href="#DejaVuSans-2e" transform="translate(63.623047 0)"/>
       <use xlink:href="#DejaVuSans-36" transform="translate(95.410156 0)"/>
      </g>
     </g>
    </g>
    <g id="ytick_4">
     <g id="line2d_13">
      <g>
       <use xlink:href="#mdc3c8026f8" x="57.6" y="204.082115" style="stroke: #000000; stroke-width: 0.8"/>
      </g>
     </g>
     <g id="text_14">
      <!-- 0.8 -->
      <g transform="translate(34.696875 207.881334) scale(0.1 -0.1)">
       <defs>
        <path id="DejaVuSans-38" d="M 2034 2216 
Q 1584 2216 1326 1975 
Q 1069 1734 1069 1313 
Q 1069 891 1326 650 
Q 1584 409 2034 409 
Q 2484 409 2743 651 
Q 3003 894 3003 1313 
Q 3003 1734 2745 1975 
Q 2488 2216 2034 2216 
z
M 1403 2484 
Q 997 2584 770 2862 
Q 544 3141 544 3541 
Q 544 4100 942 4425 
Q 1341 4750 2034 4750 
Q 2731 4750 3128 4425 
Q 3525 4100 3525 3541 
Q 3525 3141 3298 2862 
Q 3072 2584 2669 2484 
Q 3125 2378 3379 2068 
Q 3634 1759 3634 1313 
Q 3634 634 3220 271 
Q 2806 -91 2034 -91 
Q 1263 -91 848 271 
Q 434 634 434 1313 
Q 434 1759 690 2068 
Q 947 2378 1403 2484 
z
M 1172 3481 
Q 1172 3119 1398 2916 
Q 1625 2713 2034 2713 
Q 2441 2713 2670 2916 
Q 2900 3119 2900 3481 
Q 2900 3844 2670 4047 
Q 2441 4250 2034 4250 
Q 1625 4250 1398 4047 
Q 1172 3844 1172 3481 
z
" transform="scale(0.015625)"/>
       </defs>
       <use xlink:href="#DejaVuSans-30"/>
       <use xlink:href="#DejaVuSans-2e" transform="translate(63.623047 0)"/>
       <use xlink:href="#DejaVuSans-38" transform="translate(95.410156 0)"/>
      </g>
     </g>
    </g>
    <g id="ytick_5">
     <g id="line2d_14">
      <g>
       <use xlink:href="#mdc3c8026f8" x="57.6" y="173.446491" style="stroke: #000000; stroke-width: 0.8"/>
      </g>
     </g>
     <g id="text_15">
      <!-- 1.0 -->
      <g transform="translate(34.696875 177.24571) scale(0.1 -0.1)">
       <use xlink:href="#DejaVuSans-31"/>
       <use xlink:href="#DejaVuSans-2e" transform="translate(63.623047 0)"/>
       <use xlink:href="#DejaVuSans-30" transform="translate(95.410156 0)"/>
      </g>
     </g>
    </g>
    <g id="ytick_6">
     <g id="line2d_15">
      <g>
       <use xlink:href="#mdc3c8026f8" x="57.6" y="142.810867" style="stroke: #000000; stroke-width: 0.8"/>
      </g>
     </g>
     <g id="text_16">
      <!-- 1.2 -->
      <g transform="translate(34.696875 146.610086) scale(0.1 -0.1)">
       <use xlink:href="#DejaVuSans-31"/>
       <use xlink:href="#DejaVuSans-2e" transform="translate(63.623047 0)"/>
       <use xlink:href="#DejaVuSans-32" transform="translate(95.410156 0)"/>
      </g>
     </g>
    </g>
    <g id="ytick_7">
     <g id="line2d_16">
      <g>
       <use xlink:href="#mdc3c8026f8" x="57.6" y="112.175243" style="stroke: #000000; stroke-width: 0.8"/>
      </g>
     </g>
     <g id="text_17">
      <!-- 1.4 -->
      <g transform="translate(34.696875 115.974461) scale(0.1 -0.1)">
       <use xlink:href="#DejaVuSans-31"/>
       <use xlink:href="#DejaVuSans-2e" transform="translate(63.623047 0)"/>
       <use xlink:href="#DejaVuSans-34" transform="translate(95.410156 0)"/>
      </g>
     </g>
    </g>
    <g id="ytick_8">
     <g id="line2d_17">
      <g>
       <use xlink:href="#mdc3c8026f8" x="57.6" y="81.539618" style="stroke: #000000; stroke-width: 0.8"/>
      </g>
     </g>
     <g id="text_18">
      <!-- 1.6 -->
      <g transform="translate(34.696875 85.338837) scale(0.1 -0.1)">
       <use xlink:href="#DejaVuSans-31"/>
       <use xlink:href="#DejaVuSans-2e" transform="translate(63.623047 0)"/>
       <use xlink:href="#DejaVuSans-36" transform="translate(95.410156 0)"/>
      </g>
     </g>
    </g>
    <g id="ytick_9">
     <g id="line2d_18">
      <g>
       <use xlink:href="#mdc3c8026f8" x="57.6" y="50.903994" style="stroke: #000000; stroke-width: 0.8"/>
      </g>
     </g>
     <g id="text_19">
      <!-- 1.8 -->
      <g transform="translate(34.696875 54.703213) scale(0.1 -0.1)">
       <use xlink:href="#DejaVuSans-31"/>
       <use xlink:href="#DejaVuSans-2e" transform="translate(63.623047 0)"/>
       <use xlink:href="#DejaVuSans-38" transform="translate(95.410156 0)"/>
      </g>
     </g>
    </g>
    <g id="text_20">
     <!-- population -->
     <g transform="translate(28.617187 201.135031) rotate(-90) scale(0.1 -0.1)">
      <defs>
       <path id="DejaVuSans-70" d="M 1159 525 
L 1159 -1331 
L 581 -1331 
L 581 3500 
L 1159 3500 
L 1159 2969 
Q 1341 3281 1617 3432 
Q 1894 3584 2278 3584 
Q 2916 3584 3314 3078 
Q 3713 2572 3713 1747 
Q 3713 922 3314 415 
Q 2916 -91 2278 -91 
Q 1894 -91 1617 61 
Q 1341 213 1159 525 
z
M 3116 1747 
Q 3116 2381 2855 2742 
Q 2594 3103 2138 3103 
Q 1681 3103 1420 2742 
Q 1159 2381 1159 1747 
Q 1159 1113 1420 752 
Q 1681 391 2138 391 
Q 2594 391 2855 752 
Q 3116 1113 3116 1747 
z
" transform="scale(0.015625)"/>
       <path id="DejaVuSans-6f" d="M 1959 3097 
Q 1497 3097 1228 2736 
Q 959 2375 959 1747 
Q 959 1119 1226 758 
Q 1494 397 1959 397 
Q 2419 397 2687 759 
Q 2956 1122 2956 1747 
Q 2956 2369 2687 2733 
Q 2419 3097 1959 3097 
z
M 1959 3584 
Q 2709 3584 3137 3096 
Q 3566 2609 3566 1747 
Q 3566 888 3137 398 
Q 2709 -91 1959 -91 
Q 1206 -91 779 398 
Q 353 888 353 1747 
Q 353 2609 779 3096 
Q 1206 3584 1959 3584 
z
" transform="scale(0.015625)"/>
       <path id="DejaVuSans-75" d="M 544 1381 
L 544 3500 
L 1119 3500 
L 1119 1403 
Q 1119 906 1312 657 
Q 1506 409 1894 409 
Q 2359 409 2629 706 
Q 2900 1003 2900 1516 
L 2900 3500 
L 3475 3500 
L 3475 0 
L 2900 0 
L 2900 538 
Q 2691 219 2414 64 
Q 2138 -91 1772 -91 
Q 1169 -91 856 284 
Q 544 659 544 1381 
z
M 1991 3584 
L 1991 3584 
z
" transform="scale(0.015625)"/>
       <path id="DejaVuSans-6c" d="M 603 4863 
L 1178 4863 
L 1178 0 
L 603 0 
L 603 4863 
z
" transform="scale(0.015625)"/>
       <path id="DejaVuSans-61" d="M 2194 1759 
Q 1497 1759 1228 1600 
Q 959 1441 959 1056 
Q 959 750 1161 570 
Q 1363 391 1709 391 
Q 2188 391 2477 730 
Q 2766 1069 2766 1631 
L 2766 1759 
L 2194 1759 
z
M 3341 1997 
L 3341 0 
L 2766 0 
L 2766 531 
Q 2569 213 2275 61 
Q 1981 -91 1556 -91 
Q 1019 -91 701 211 
Q 384 513 384 1019 
Q 384 1609 779 1909 
Q 1175 2209 1959 2209 
L 2766 2209 
L 2766 2266 
Q 2766 2663 2505 2880 
Q 2244 3097 1772 3097 
Q 1472 3097 1187 3025 
Q 903 2953 641 2809 
L 641 3341 
Q 956 3463 1253 3523 
Q 1550 3584 1831 3584 
Q 2591 3584 2966 3190 
Q 3341 2797 3341 1997 
z
" transform="scale(0.015625)"/>
       <path id="DejaVuSans-69" d="M 603 3500 
L 1178 3500 
L 1178 0 
L 603 0 
L 603 3500 
z
M 603 4863 
L 1178 4863 
L 1178 4134 
L 603 4134 
L 603 4863 
z
" transform="scale(0.015625)"/>
       <path id="DejaVuSans-6e" d="M 3513 2113 
L 3513 0 
L 2938 0 
L 2938 2094 
Q 2938 2591 2744 2837 
Q 2550 3084 2163 3084 
Q 1697 3084 1428 2787 
Q 1159 2491 1159 1978 
L 1159 0 
L 581 0 
L 581 3500 
L 1159 3500 
L 1159 2956 
Q 1366 3272 1645 3428 
Q 1925 3584 2291 3584 
Q 2894 3584 3203 3211 
Q 3513 2838 3513 2113 
z
" transform="scale(0.015625)"/>
      </defs>
      <use xlink:href="#DejaVuSans-70"/>
      <use xlink:href="#DejaVuSans-6f" transform="translate(63.476562 0)"/>
      <use xlink:href="#DejaVuSans-70" transform="translate(124.658203 0)"/>
      <use xlink:href="#DejaVuSans-75" transform="translate(188.134766 0)"/>
      <use xlink:href="#DejaVuSans-6c" transform="translate(251.513672 0)"/>
      <use xlink:href="#DejaVuSans-61" transform="translate(279.296875 0)"/>
      <use xlink:href="#DejaVuSans-74" transform="translate(340.576172 0)"/>
      <use xlink:href="#DejaVuSans-69" transform="translate(379.785156 0)"/>
      <use xlink:href="#DejaVuSans-6f" transform="translate(407.568359 0)"/>
      <use xlink:href="#DejaVuSans-6e" transform="translate(468.75 0)"/>
     </g>
    </g>
   </g>
   <g id="line2d_19">
    <path d="M 73.832727 173.446491 
L 75.266176 190.353183 
L 76.437335 202.382056 
L 77.608493 212.776356 
L 78.779651 221.60493 
L 80.341196 231.152027 
L 81.902741 238.470067 
L 82.683513 241.398711 
L 83.464285 243.892525 
L 84.245057 245.986814 
L 85.02583 247.713328 
L 85.806602 249.100584 
L 86.587374 250.173698 
L 87.368146 250.954635 
L 88.148919 251.462444 
L 88.929691 251.713508 
L 89.710463 251.721759 
L 90.491235 251.498911 
L 91.272008 251.054672 
L 92.05278 250.396961 
L 92.833552 249.532096 
L 93.614324 248.464953 
L 95.175869 245.73703 
L 96.737413 242.228799 
L 98.298958 237.941159 
L 99.07973 235.502115 
L 100.641275 230.022694 
L 102.202819 223.722054 
L 103.764364 216.573269 
L 105.325908 208.548295 
L 106.887453 199.621845 
L 108.448997 189.776157 
L 110.010542 179.007382 
L 111.572086 167.333514 
L 114.695175 141.526566 
L 121.475781 81.344618 
L 122.521904 73.293463 
L 123.568027 66.207692 
L 124.445262 61.23181 
L 125.322497 57.341807 
L 126.199731 54.732355 
L 127.076966 53.589263 
L 127.954201 54.076133 
L 128.831436 56.318806 
L 129.708671 60.388251 
L 130.585906 66.28541 
L 131.992311 79.325275 
L 133.288073 94.631859 
L 135.231716 121.352279 
L 138.471121 166.912029 
L 140.44904 190.741801 
L 141.767653 204.113604 
L 143.27893 216.905877 
L 144.790208 227.177963 
L 146.301486 235.218422 
L 147.812763 241.33632 
L 148.568402 243.765732 
L 149.324041 245.819175 
L 150.07968 247.525833 
L 150.835318 248.911532 
L 151.590957 249.999645 
L 152.346596 250.810538 
L 153.102235 251.36199 
L 153.857874 251.669377 
L 154.613512 251.745887 
L 155.369151 251.602718 
L 156.12479 251.249251 
L 156.880429 250.693233 
L 157.636068 249.940938 
L 158.391706 248.997322 
L 159.902984 246.550143 
L 161.414262 243.369721 
L 162.925539 239.460331 
L 164.436817 234.815389 
L 165.948094 229.419882 
L 167.459372 223.252702 
L 168.970649 216.289212 
L 170.481927 208.504091 
L 171.993205 199.874501 
L 173.504482 190.384192 
L 175.01576 180.028678 
L 178.038315 156.809483 
L 180.906914 132.1288 
L 186.3362 83.685705 
L 187.416769 75.159699 
L 188.497339 67.590337 
L 189.382784 62.329794 
L 190.268228 58.128066 
L 191.153673 55.185813 
L 192.039117 53.697112 
L 192.924562 53.836303 
L 193.810007 55.742251 
L 194.695451 59.500527 
L 195.580896 65.126999 
L 196.249647 70.578266 
L 197.587149 84.292636 
L 198.924652 101.031426 
L 201.599656 138.962922 
L 203.60591 166.743236 
L 205.582782 190.589626 
L 206.890903 203.885277 
L 208.323941 216.119406 
L 209.881896 226.839723 
L 211.43985 235.175869 
L 212.997805 241.46681 
L 213.776782 243.94522 
L 214.665152 246.290192 
L 215.553522 248.163571 
L 216.441891 249.607984 
L 217.330261 250.65843 
L 218.218631 251.345204 
L 219.325606 251.730799 
L 220.432581 251.630833 
L 221.539557 251.077327 
L 222.646532 250.093816 
L 223.753507 248.697633 
L 224.860483 246.900584 
L 225.967458 244.709739 
L 227.074433 242.127848 
L 228.181409 239.154411 
L 229.288384 235.786051 
L 230.395359 232.017004 
L 232.60931 223.244893 
L 234.823261 212.763853 
L 237.037211 200.496415 
L 239.251162 186.385651 
L 241.465113 170.429376 
L 243.679064 152.730553 
L 246.99999 123.609875 
L 251.427891 84.144959 
L 253.48084 68.661487 
L 254.426815 62.8903 
L 255.372789 58.301395 
L 256.181831 55.497648 
L 256.990874 53.886171 
L 257.799916 53.604705 
L 258.608959 54.768013 
L 259.418001 57.457029 
L 260.227044 61.708327 
L 261.036086 67.504958 
L 262.393377 80.461523 
L 263.750669 96.784083 
L 265.786605 125.087894 
L 268.501188 163.409029 
L 270.482405 187.838944 
L 271.784977 201.469635 
L 273.225073 214.184631 
L 274.802693 225.436852 
L 276.380314 234.194389 
L 277.957934 240.808881 
L 278.746744 243.417867 
L 279.535554 245.611986 
L 280.324365 247.424766 
L 281.113175 248.886027 
L 281.901985 250.022355 
L 282.690795 250.856975 
L 283.479605 251.410024 
L 284.268416 251.698777 
L 285.057226 251.737916 
L 285.846036 251.539796 
L 286.634846 251.114677 
L 287.423656 250.470924 
L 288.212467 249.6152 
L 289.001277 248.552652 
L 290.578897 245.82106 
L 292.156517 242.292788 
L 293.734138 237.969037 
L 294.522948 235.505859 
L 296.100568 229.965686 
L 297.678189 223.587008 
L 299.255809 216.341905 
L 300.83343 208.20174 
L 302.41105 199.140129 
L 303.98867 189.140097 
L 305.566291 178.19778 
L 307.143911 166.334413 
L 310.124009 141.652622 
L 316.921406 81.319421 
L 317.932679 73.5231 
L 318.943952 66.620402 
L 319.955224 60.887107 
L 320.782433 57.270022 
L 321.609641 54.794607 
L 322.43685 53.617862 
L 323.264058 53.878946 
L 324.091267 55.687856 
L 324.918475 59.113534 
L 325.745684 64.171964 
L 326.452208 69.752804 
L 327.865258 84.08453 
L 329.278307 101.804378 
L 332.104407 141.961712 
L 334.150305 169.972156 
L 336.048852 192.439194 
L 337.314551 205.077305 
L 338.580249 215.819267 
L 339.845947 224.774294 
L 341.111645 232.107063 
L 342.377343 238.001044 
L 343.643041 242.634642 
L 344.908739 246.169228 
L 346.174438 248.743617 
L 347.440136 250.473327 
L 348.072985 251.051448 
L 349.338683 251.683196 
L 350.604381 251.66805 
L 351.870079 251.055517 
L 353.135777 249.881724 
L 354.401476 248.171492 
L 355.667174 245.940429 
L 356.932872 243.196557 
L 358.19857 239.941389 
L 359.464268 236.171554 
L 360.729966 231.878468 
L 361.995664 227.051232 
L 363.261363 221.676127 
L 364.527061 215.738283 
L 365.792759 209.222819 
L 368.324155 194.40783 
L 370.855551 177.171828 
L 373.386948 157.585358 
L 375.918344 135.970977 
L 382.246835 79.892225 
L 383.241747 72.351382 
L 384.236659 65.715155 
L 385.231572 60.25207 
L 386.047749 56.840655 
L 386.863925 54.562792 
L 387.680102 53.568 
L 388.496279 53.987287 
L 389.312456 55.922528 
L 390.128633 59.435516 
L 390.94481 64.536979 
L 391.760987 71.178204 
L 393.164456 85.842326 
L 394.567926 103.722401 
L 398.487273 159.244519 
L 398.487273 159.244519 
" clip-path="url(#p59a8bcf308)" style="fill: none; stroke: #1f77b4; stroke-width: 1.5; stroke-linecap: square"/>
   </g>
   <g id="line2d_20">
    <path d="M 73.832727 173.446491 
L 74.192614 173.545848 
L 74.583001 173.87299 
L 75.070983 174.588583 
L 75.656562 175.868905 
L 76.437335 178.22463 
L 77.218107 181.227378 
L 77.998879 184.772038 
L 79.560424 193.080581 
L 81.902741 207.248729 
L 85.806602 231.14651 
L 88.148919 244.046967 
L 90.491235 255.361042 
L 92.05278 261.976936 
L 93.614324 267.866508 
L 95.175869 273.062868 
L 96.737413 277.60805 
L 98.298958 281.547402 
L 99.07973 283.303985 
L 100.641275 286.417483 
L 102.202819 289.030053 
L 103.764364 291.174915 
L 105.325908 292.877749 
L 106.887453 294.15519 
L 108.448997 295.013774 
L 110.010542 295.448465 
L 111.572086 295.44079 
L 113.133631 294.954986 
L 114.695175 293.935838 
L 116.051296 292.556038 
L 117.407418 290.643338 
L 118.763539 288.108165 
L 120.11966 284.839727 
L 121.475781 280.70648 
L 122.521904 276.835614 
L 123.568027 272.292476 
L 125.322497 262.987216 
L 127.076966 251.407263 
L 128.831436 237.644524 
L 134.583835 188.89383 
L 135.879597 181.211371 
L 136.527478 178.297928 
L 137.175359 176.057057 
L 137.82324 174.506114 
L 138.471121 173.644858 
L 139.130427 173.458515 
L 139.789734 173.936279 
L 140.44904 175.033795 
L 141.108347 176.697636 
L 141.767653 178.868417 
L 142.523292 181.901385 
L 144.034569 189.331539 
L 146.301486 202.597987 
L 151.590957 234.796771 
L 153.857874 246.909103 
L 156.12479 257.499182 
L 157.636068 263.692156 
L 159.147345 269.21217 
L 160.658623 274.092009 
L 162.1699 278.370897 
L 162.925539 280.297893 
L 164.436817 283.752418 
L 165.948094 286.706367 
L 167.459372 289.194847 
L 168.970649 291.247397 
L 170.481927 292.886562 
L 171.993205 294.127165 
L 173.504482 294.975394 
L 175.01576 295.427478 
L 176.527037 295.467311 
L 178.038315 295.064747 
L 179.549593 294.172001 
L 180.906914 292.896291 
L 182.264235 291.103523 
L 183.621557 288.708139 
L 184.978878 285.603633 
L 186.3362 281.662177 
L 187.416769 277.831086 
L 188.497339 273.300487 
L 189.382784 269.01453 
L 191.153673 258.750913 
L 192.924562 246.159011 
L 194.695451 231.51494 
L 198.924652 194.746185 
L 200.262154 185.466182 
L 200.930905 181.698403 
L 201.599656 178.601363 
L 202.268407 176.217376 
L 202.937158 174.567541 
L 203.60591 173.653079 
L 204.274661 173.456191 
L 204.928721 173.923348 
L 205.582782 175.002603 
L 206.236843 176.639799 
L 206.890903 178.777601 
L 207.544964 181.354643 
L 209.102919 188.902803 
L 210.660873 197.800119 
L 217.330261 238.096833 
L 219.325606 248.49761 
L 221.539557 258.642538 
L 223.753507 267.309282 
L 225.967458 274.576068 
L 228.181409 280.562806 
L 230.395359 285.397895 
L 231.502335 287.421172 
L 232.60931 289.199311 
L 233.716285 290.743549 
L 234.823261 292.063202 
L 235.930236 293.165468 
L 237.037211 294.055204 
L 238.144187 294.734646 
L 239.251162 295.203181 
L 240.358138 295.456829 
L 241.465113 295.488 
L 242.572088 295.284844 
L 243.679064 294.830861 
L 244.786039 294.10358 
L 245.893014 293.074716 
L 246.99999 291.708017 
L 248.106965 289.959742 
L 249.21394 287.776347 
L 250.320916 285.095532 
L 251.427891 281.845375 
L 252.534866 277.946553 
L 253.48084 274.038545 
L 254.426815 269.54546 
L 256.181831 259.517867 
L 257.799916 248.242777 
L 259.418001 235.181731 
L 264.429314 192.066129 
L 265.786605 183.26174 
L 266.465251 179.820107 
L 267.143897 177.097042 
L 267.822542 175.123808 
L 268.501188 173.909849 
L 269.179833 173.443542 
L 269.831119 173.671155 
L 270.482405 174.522295 
L 271.133691 175.947241 
L 271.784977 177.89091 
L 272.436263 180.294178 
L 274.013883 187.649018 
L 275.591503 196.505065 
L 283.479605 243.462915 
L 285.846036 254.965671 
L 287.423656 261.688318 
L 289.001277 267.668355 
L 290.578897 272.939394 
L 292.156517 277.544577 
L 293.734138 281.530651 
L 294.522948 283.306061 
L 296.100568 286.448979 
L 297.678189 289.080957 
L 299.255809 291.23623 
L 300.83343 292.940871 
L 302.41105 294.212038 
L 303.98867 295.05534 
L 305.566291 295.465546 
L 307.143911 295.421992 
L 308.721532 294.88675 
L 310.124009 293.950471 
L 311.526487 292.520189 
L 312.928965 290.517926 
L 314.331442 287.843447 
L 315.73392 284.372343 
L 316.921406 280.702055 
L 317.932679 276.969215 
L 318.943952 272.609839 
L 320.782433 262.890521 
L 322.43685 252.011967 
L 324.091267 239.174087 
L 326.452208 218.486185 
L 328.571783 199.914066 
L 329.984832 189.177363 
L 331.397882 180.834409 
L 332.104407 177.772857 
L 332.810931 175.517163 
L 333.517456 174.083811 
L 334.150305 173.492814 
L 334.783154 173.534475 
L 335.416003 174.175986 
L 336.048852 175.375226 
L 336.681702 177.083447 
L 337.314551 179.247243 
L 338.580249 184.718166 
L 339.845947 191.347223 
L 341.744494 202.59209 
L 346.807287 233.50615 
L 348.072985 240.526569 
L 350.604381 253.188626 
L 353.135777 263.910315 
L 354.401476 268.557753 
L 355.667174 272.752824 
L 356.932872 276.517988 
L 358.19857 279.8775 
L 359.464268 282.85539 
L 360.729966 285.475293 
L 361.995664 287.758284 
L 363.261363 289.723474 
L 364.527061 291.38701 
L 365.792759 292.761619 
L 367.058457 293.856203 
L 368.324155 294.675332 
L 369.589853 295.219007 
L 370.855551 295.481162 
L 372.12125 295.450209 
L 373.386948 295.106109 
L 374.652646 294.421349 
L 375.918344 293.357364 
L 377.184042 291.86403 
L 378.44974 289.877596 
L 379.715438 287.318987 
L 380.981137 284.092963 
L 382.246835 280.08903 
L 383.241747 276.317142 
L 384.236659 271.93027 
L 386.047749 262.184715 
L 387.680102 251.320963 
L 389.312456 238.56273 
L 391.760987 217.032257 
L 393.866191 198.710062 
L 395.269661 188.246964 
L 395.971395 183.883828 
L 396.67313 180.220515 
L 397.374865 177.319193 
L 398.0766 175.217545 
L 398.487273 174.365805 
L 398.487273 174.365805 
" clip-path="url(#p59a8bcf308)" style="fill: none; stroke: #ff7f0e; stroke-width: 1.5; stroke-linecap: square"/>
   </g>
   <g id="patch_3">
    <path d="M 57.6 307.584 
L 57.6 41.472 
" style="fill: none; stroke: #000000; stroke-width: 0.8; stroke-linejoin: miter; stroke-linecap: square"/>
   </g>
   <g id="patch_4">
    <path d="M 414.72 307.584 
L 414.72 41.472 
" style="fill: none; stroke: #000000; stroke-width: 0.8; stroke-linejoin: miter; stroke-linecap: square"/>
   </g>
   <g id="patch_5">
    <path d="M 57.6 307.584 
L 414.72 307.584 
" style="fill: none; stroke: #000000; stroke-width: 0.8; stroke-linejoin: miter; stroke-linecap: square"/>
   </g>
   <g id="patch_6">
    <path d="M 57.6 41.472 
L 414.72 41.472 
" style="fill: none; stroke: #000000; stroke-width: 0.8; stroke-linejoin: miter; stroke-linecap: square"/>
   </g>
  </g>
 </g>
 <defs>
  <clipPath id="p59a8bcf308">
   <rect x="57.6" y="41.472" width="357.12" height="266.112"/>
  </clipPath>
 </defs>
</svg>
